<?xml version="1.0" encoding="utf-8"?>
<!-- Generator: Adobe Illustrator 16.0.0, SVG Export Plug-In . SVG Version: 6.00 Build 0)  -->
<!DOCTYPE svg PUBLIC "-//W3C//DTD SVG 1.1//EN" "http://www.w3.org/Graphics/SVG/1.1/DTD/svg11.dtd">
<svg version="1.1" id="Layer_1" xmlns="http://www.w3.org/2000/svg" xmlns:xlink="http://www.w3.org/1999/xlink" x="0px" y="0px"
	 width="256px" height="256px" viewBox="0 0 256 256" enable-background="new 0 0 256 256" xml:space="preserve">
<polygon fill-rule="evenodd" clip-rule="evenodd" fill="#FFFFFF" points="50.574,85.636 189.984,66.319 189.984,177.152 
	50.574,175.622 "/>
<g id="ounBVg.tif">
	<g>
		<path fill="#020202" d="M216.117,58.381c-4.896-1.774-9.734-3.718-14.607-5.552c-0.633-0.237-1.391-0.374-2.049-0.274
			c-15.897,2.403-31.787,4.851-47.682,7.277c-4.677,0.714-9.358,1.394-14.398,2.142c0.827-2.455,1.56-4.593,2.273-6.737
			c0.967-2.916,0.895-5.936-0.66-8.47c-2.934-4.779-3.972-10.019-4.13-15.406c-0.124-4.146-1.883-6.5-5.733-7.6
			c-5.223-1.49-9.317-4.577-12.513-8.94c-0.885-1.209-1.915-2.314-2.878-3.468h-3.336c-1.421,1.666-2.848,3.331-4.415,5.168
			c-1.053-0.4-2.555-1.092-4.125-1.542c-2.684-0.769-5.513-1.016-7.643,1.082c-3.923,3.858-8.751,6.761-11.857,11.5
			c-1.114,1.693-2.752,3.065-4.264,4.46c-0.665,0.615-1.57,1.149-2.444,1.333c-5.725,1.195-11.455,2.358-17.213,3.368
			c-1.816,0.319-2.653,1.004-3.117,2.884c-1.013,4.12-2.408,8.144-3.62,12.216c-0.245,0.823-0.679,1.769-0.477,2.512
			c1.189,4.484,2.414,8.967,3.891,13.361c0.733,2.182,2.025,4.175,3.109,6.337c-5.02,0.77-9.782,1.498-14.305,2.191v111.249
			c51.834,1.166,103.246,2.323,154.743,3.482c0.146,2.741,0.282,5.233,0.426,7.846c-52.039-1.655-103.735-3.301-155.499-4.951
			v14.465c57.693,2.323,115.293,4.642,172.837,6.96c0.102-0.474,0.162-0.625,0.162-0.771c0.332-51.297,0.657-102.59,1.013-153.883
			C217.614,59.429,217.339,58.825,216.117,58.381z M103.623,19.722c-2.824,0.893-5.017,1.587-7.433,2.351
			c-0.108-1.401-0.199-2.59-0.311-4.037C98.31,18.565,100.612,19.066,103.623,19.722z M90.155,31.562
			c3.417-1.803,6.758-3.762,10.063-5.768c2.677-1.625,2.803-1.675,4.778,0.845c5.312,6.772,8.477,14.547,10.633,22.79
			c0.479,1.826,0.95,3.652,1.424,5.479c-0.214,0.219-0.426,0.437-0.638,0.656c-0.67-0.606-1.678-1.087-1.955-1.838
			c-1.587-4.273-2.998-8.614-4.48-12.928c-0.335-0.968-0.708-1.923-1.073-2.879c-1.134-2.976-2.996-4.635-6.479-4.253
			c-5.35,0.587-10.729,0.915-16.099,1.342c-1.164,0.092-2.333,0.141-3.588-0.12C85.222,33.791,87.767,32.824,90.155,31.562z
			 M97.634,38.727c1.555-0.226,3.331-0.614,4.687-0.096c1.537,0.586,3.438,1.861,3.916,3.267c1.885,5.492,3.291,11.148,4.808,16.763
			c0.177,0.659-0.07,1.433-0.121,2.152c-0.193,0.041-0.388,0.08-0.582,0.12c-0.751-1.624-1.531-3.233-2.234-4.876
			c-0.277-0.646-0.33-1.383-0.569-2.047c-2.749-7.585-3.211-7.744-10.518-7.892c-5.836-0.12-11.689-0.389-17.493-0.996
			c-2.658-0.277-5.213-1.521-8.191-2.445C80.456,41.298,89.039,39.977,97.634,38.727z M66.646,47.211
			c0.489-0.234,1.32-0.201,1.794,0.064c6.874,3.841,14.406,4.394,22.028,4.532c1.983,0.036,3.966,0.027,5.951,0.024
			c3.981-0.005,6.26,1.566,7.358,5.522c1.118,4.02,1.925,8.124,2.958,12.168c0.403,1.575-0.065,2.632-1.612,2.791
			c-4.004,0.408-8.025,0.65-12.045,0.916c-0.343,0.024-1.028-0.293-1.018-0.408c0.126-1.599,0.015-3.372,0.721-4.693
			c0.276-0.516,2.484-0.158,3.757,0.089c0.697,0.136,1.312,0.832,1.904,1.344c1.593,1.382,2.825,1.01,4.004-1.014
			c-1.557-0.941-3.124-1.887-5.221-3.154h5.476c-0.3-3.588-2.674-5.339-5.616-4.398c-2.395,0.767-4.798,1.537-7.111,2.511
			c-0.647,0.273-1.368,1.256-1.406,1.948c-0.158,3.001-0.05,6.016-0.096,9.025c-0.025,1.635,0.595,2.916,2.223,3.186
			c3.396,0.564,6.823,1.192,10.251,1.277c3.111,0.078,5.608,0.346,7.317,3.527c1.048,1.944,3.109,3.338,4.717,4.98
			c0.141-0.155,0.277-0.309,0.418-0.463c-0.806-2.303-1.582-4.619-2.429-6.908c-0.736-1.982-0.676-3.718,0.592-5.594
			c1.301-1.924,2.089-4.188,3.208-6.244c0.695-1.271,1.588-2.434,2.605-3.97c0.872,1.755,1.527,3.07,2.192,4.401
			c1.824-1.501,1.854-1.6,0.849-3.709c-0.839-1.766-2.159-3.525,0.456-5.037c0.306-0.177,0.293-1.118,0.228-1.681
			c-0.217-1.879-0.527-3.75-0.857-6.009c1.88,1.23,3.473,2.272,5.131,3.358c0.554-2.588-0.575-4.246-2.358-5.62
			c-2.359-1.813-3.528-4.271-3.506-7.183c0.008-0.934,0.727-1.861,1.323-3.271c-2.167-4.224-4.891-9.094-7.161-14.169
			c-1.063-2.374-1.366-5.122-1.789-7.737c-0.257-1.579,1.134-2.201,2.092-1.378c2.016,1.733,3.681,3.873,5.49,5.846
			c-0.292,0.267-0.585,0.534-0.88,0.801c-1.612-1.832-3.229-3.664-4.843-5.496l-0.938,0.677c0.973,1.666,1.608,3.728,2.994,4.915
			c2.973,2.547,6.233,4.804,9.58,6.84c1.234,0.75,2.207,1.378,2.499,2.77c1.352,6.385,2.792,12.755,3.927,19.181
			c0.279,1.601-0.139,3.528-0.802,5.06c-2.54,5.864-1.87,11.784-0.549,17.69c0.7,3.133,0.498,6.037-0.444,9.083
			c-0.685,2.216-0.763,4.623-1.099,6.947c-0.156,1.096-0.061,2.284-0.458,3.278c-1.361,3.403-0.504,6.542,0.469,9.877
			c5.321,18.29,10.467,36.629,15.663,54.956c0.126,0.438,0.128,0.912,0.231,1.706c-1.512-1.097-2.776-2.014-4.221-3.062
			c-0.622,1.767-1.217,3.452-1.812,5.14c-0.144-0.037-0.287-0.075-0.434-0.11c0.363-3.109,0.726-6.219,1.134-9.754
			c-3.596,2.18-6.965,4.138-10.24,6.246c-1.265,0.816-2.099,0.786-3.306-0.171c-3.352-2.653-6.895-5.067-10.246-7.721
			c-0.922-0.726-1.718-1.854-2.108-2.961c-3.077-8.711-6.07-17.449-9.039-26.198c-2.736-8.077-7.68-14.213-15.426-17.994
			c-4.645-2.266-7.706-5.875-9.309-10.842c-0.569-1.765-1.569-3.399-2.323-5.104c-6.06-5.636-9.862-13.542-12.72-21.178
			c-0.005-0.018-0.005-0.033-0.013-0.05c-0.038-0.002-0.078-0.006-0.118-0.01c-0.952-5.425-1.902-10.85-2.934-16.744
			C62.941,49.178,64.756,48.118,66.646,47.211z M189.984,177.152c-46.269-0.507-92.749-1.019-139.41-1.53V85.636
			c3.725-0.518,7.539-1.05,11.669-1.624c1.081,7.879,5.587,14.224,8.953,21.054c2.998,6.088,7.035,11.151,14.582,11.664
			c2.57,0.175,3.772,1.525,4.768,3.954c5.347,13.037,9.792,26.352,13.09,40.049c0.222,0.936,0.217,1.926,0.346,3.173
			c-4.795-2.041-9.17-3.903-13.539-5.766c0.081,0.432,0.086,0.902,0.298,1.258c2.842,4.841,5.685,9.681,8.633,14.456
			c0.397,0.643,1.396,1.308,2.111,1.305c28.649-0.184,57.295-0.445,85.939-0.7c0.146,0,0.293-0.067,0.666-0.161v-30.77
			c-2.833,2.873-6,6.083-9.223,9.349c1.809,1.003,4.112,2.28,6.713,3.722c-3.125,1.714-6.073,3.329-9.165,5.02
			c2.382,2.374,4.669,4.645,6.952,6.92c0.139,0.123,0.277,0.246,0.418,0.37c-0.236,0.005-0.474,0.013-0.71,0.018
			c-4.423-2.245-8.845-4.493-13.34-6.778c-0.693,1.295-1.311,2.446-2.074,3.875c-2.88-4.339-5.621-8.477-8.418-12.689
			c-0.814,1.223-1.593,2.389-2.49,3.734c-2.036-6.614-3.908-13.055-6.002-19.425c-3.9-11.861-7.973-23.662-11.873-35.521
			c-0.95-2.891-1.558-5.9-2.207-8.88c-0.134-0.602,0.061-1.434,0.408-1.96c3.406-5.161,4.001-10.722,2.534-16.614
			c-0.091-0.367-0.105-0.752-0.187-1.348c16.792-2.324,33.471-4.634,50.558-6.999V177.152z"/>
		<path fill-rule="evenodd" clip-rule="evenodd" fill="#020202" d="M143.759,240.541c-0.869-0.156-1.741-0.448-2.613-0.464
			c-23.008-0.343-46.017-0.66-69.181-0.982c0-2.157,0-4.248,0-6.517c17.991-1.315,35.99-2.636,54.249-3.976
			c-0.479-3.931-0.94-7.741-1.447-11.929c11.032,0.343,22.006,0.675,33.171,1.018c0,4.248,0,8.416,0,12.861
			c5.316,0.519,10.478,1.027,15.84,1.557c0,2.803,0,5.619,0,8.432C163.773,240.541,153.765,240.541,143.759,240.541z"/>
		<path fill-rule="evenodd" clip-rule="evenodd" fill="#020202" d="M33.213,72.344c2.857-4.218,5.715-8.437,8.799-12.99
			c1.25,4.804,2.414,9.295,3.644,14.026c-4.263-0.193-8.351-0.376-12.442-0.561C33.213,72.661,33.213,72.502,33.213,72.344z"/>
		<path fill-rule="evenodd" clip-rule="evenodd" fill="#020202" d="M158.28,52.581c-3.886-2.719-7.766-5.437-11.808-8.264
			c2.162-3.923,4.278-7.759,6.688-12.128c1.899,7.089,3.644,13.607,5.388,20.125C158.451,52.397,158.363,52.486,158.28,52.581z"/>
		<path fill-rule="evenodd" clip-rule="evenodd" fill="#020202" d="M158.548,52.315c0.101,0.084,0.206,0.17,0.307,0.254
			c-0.191,0.004-0.383,0.006-0.574,0.01C158.363,52.486,158.451,52.397,158.548,52.315z"/>
		<path fill-rule="evenodd" clip-rule="evenodd" fill="#FFFFFF" d="M71.335,42.677c9.121-1.378,17.704-2.7,26.299-3.95
			c1.555-0.226,3.331-0.614,4.687-0.096c1.537,0.586,3.438,1.861,3.916,3.267c1.885,5.492,3.291,11.148,4.808,16.763
			c0.177,0.659-0.07,1.433-0.121,2.152c-0.193,0.041-0.388,0.08-0.582,0.12c-0.751-1.624-1.531-3.233-2.234-4.876
			c-0.277-0.646-0.33-1.383-0.569-2.047c-2.749-7.585-3.211-7.744-10.518-7.892c-5.836-0.12-11.689-0.389-17.493-0.996
			C76.868,44.845,74.313,43.601,71.335,42.677z"/>
		<path fill-rule="evenodd" clip-rule="evenodd" fill="#FFFFFF" d="M116.416,55.565c-0.67-0.606-1.678-1.087-1.955-1.838
			c-1.587-4.273-2.998-8.614-4.48-12.928c-0.335-0.968-0.708-1.923-1.073-2.879c-1.134-2.976-2.996-4.635-6.479-4.253
			c-5.35,0.587-10.729,0.915-16.099,1.342c-1.164,0.092-2.333,0.141-3.588-0.12c2.479-1.099,5.024-2.065,7.413-3.328
			c3.417-1.803,6.758-3.762,10.063-5.768c2.677-1.625,2.803-1.675,4.778,0.845c5.312,6.772,8.477,14.547,10.633,22.79
			c0.479,1.826,0.95,3.652,1.424,5.479C116.84,55.128,116.628,55.346,116.416,55.565z"/>
		<path fill-rule="evenodd" clip-rule="evenodd" fill="#FFFFFF" d="M103.623,19.722c-2.824,0.893-5.017,1.587-7.433,2.351
			c-0.108-1.401-0.199-2.59-0.311-4.037C98.31,18.565,100.612,19.066,103.623,19.722z"/>
		<path fill-rule="evenodd" clip-rule="evenodd" fill="#FFFFFF" d="M183.367,168.537c0.139,0.123,0.277,0.246,0.418,0.37
			c-0.236,0.005-0.474,0.013-0.71,0.018C183.173,168.796,183.271,168.665,183.367,168.537z"/>
		<path fill-rule="evenodd" clip-rule="evenodd" fill="#020202" d="M144.194,79.452c5.528-4.463,11.732-6.993,18.909-7.63
			c8.033-0.715,16.011-2.074,24.18-3.175c0.98,11.43,1.552,22.744-3.485,33.444c-1.85-3.603-3.837-7.47-6.138-11.952
			c0,2.565,0,4.467,0,6.37c-0.164,0.024-0.33,0.047-0.496,0.071c-0.57-2.466-1.14-4.932-1.795-7.766
			c-5.76,5.596-11.358,11.033-16.953,16.469c-0.146-0.052-0.292-0.103-0.44-0.155c0.849-3.895,1.698-7.789,2.688-12.341
			c-4.319,2.525-8.094,4.729-12.423,7.258c3.511-7.218,6.764-13.904,9.928-20.413c-4.674,0-9.227,0-13.777,0
			C144.325,79.573,144.26,79.513,144.194,79.452z"/>
		<path fill-rule="evenodd" clip-rule="evenodd" fill="#020202" d="M56.924,122.654c1.293,6.746,2.51,13.095,3.725,19.448
			c-0.177,0.033-0.351,0.068-0.524,0.101c-1.65-3.808-3.145-7.69-4.994-11.396c-2.106-4.224-2.893-8.576-2.817-13.274
			c0.162-10.313,0.049-20.631,0.049-31.218c2.489-0.277,5.183-0.577,8.166-0.909c-0.864,2.803-1.557,5.302-2.414,7.745
			c-0.562,1.606-0.375,2.927,0.494,4.418c3.19,5.462,6.234,11.008,9.119,16.892c-2.044-1.168-4.085-2.336-6.627-3.791
			c1.928,6.395,3.722,12.348,5.667,18.804C63.299,127.068,60.271,124.972,56.924,122.654z"/>
		<path fill-rule="evenodd" clip-rule="evenodd" fill="#020202" d="M64.539,144.811c-0.721,3.608-1.301,6.521-1.905,9.564
			c2.215,0.653,4.304,1.268,6.539,1.923c-0.859,3.157-1.676,6.163-2.578,9.487c2.618-1.295,4.967-2.454,7.408-3.661
			c0.255,5.49-2.55,8.91-6.606,11.588c-0.247,0.161-0.59,0.253-0.89,0.255c-5.052,0.016-10.102,0.01-15.196,0.01
			c0-7.015-0.021-13.813,0.035-20.609c0.005-0.498,0.428-1.201,0.861-1.459C56.067,149.626,59.973,147.421,64.539,144.811z"/>
		<path fill-rule="evenodd" clip-rule="evenodd" fill="#020202" d="M183.606,129.961c-4.256,0-8.091,0-12.286,0
			c4.014-3.568,7.769-6.901,11.76-10.451c-2.797-0.709-5.297-1.345-7.796-1.982c-0.021-0.128-0.035-0.257-0.051-0.384
			c2.621-0.587,5.244-1.173,8.185-1.831c-1.996-3.339-3.911-6.541-5.937-9.929c3.729,0.258,7.187,0.497,10.548,0.729
			c0,10.835,0,21.504,0,32.203c-3.795,1.084-7.325,2.09-11.294,3.224C179.084,137.576,181.23,133.965,183.606,129.961z"/>
		<path fill-rule="evenodd" clip-rule="evenodd" fill="#020202" d="M161.919,129.966c-3.714-1.043-7.429-2.088-11.302-3.177
			c2.014-4.864,3.868-9.343,5.939-14.346c1.859,6.167,3.578,11.867,5.299,17.566L161.919,129.966z"/>
		<path fill-rule="evenodd" clip-rule="evenodd" fill="#020202" d="M84.44,142.021c-2.934,0.612-5.533,1.154-8.315,1.736
			c0.383-4.608,0.756-9.132,1.197-14.428C79.859,133.854,82.054,137.768,84.44,142.021z"/>
		<path fill-rule="evenodd" clip-rule="evenodd" fill="#020202" d="M161.855,130.009c0.099,0.056,0.199,0.113,0.295,0.169
			c-0.088,0.027-0.176,0.059-0.265,0.088c0.011-0.101,0.021-0.198,0.03-0.3C161.919,129.966,161.855,130.009,161.855,130.009z"/>
		<path fill-rule="evenodd" clip-rule="evenodd" fill="#020202" d="M144.392,79.632c-0.162,0.017-0.325,0.032-0.489,0.048
			c0.101-0.075,0.196-0.152,0.292-0.228C144.26,79.513,144.325,79.573,144.392,79.632z"/>
		<path fill-rule="evenodd" clip-rule="evenodd" fill="#020202" d="M90.428,158.055c-0.106,0.03-0.215,0.061-0.32,0.09
			c0.008-0.098,0.018-0.193,0.027-0.292c0.083,0.089,0.167,0.177,0.252,0.265L90.428,158.055z"/>
		<path fill-rule="evenodd" clip-rule="evenodd" fill="#020202" d="M113.397,86.985c0.126,0.289,0.255,0.576,0.383,0.864
			c-0.171,0.137-0.337,0.277-0.509,0.415c-0.096-0.272-0.193-0.543-0.292-0.815C113.12,87.293,113.257,87.14,113.397,86.985z"/>
	</g>
</g>
<path fill-rule="evenodd" clip-rule="evenodd" fill="#FFFFFF" d="M144.583,158.659c-5.196-18.326-10.342-36.666-15.663-54.956
	c-0.973-3.335-1.83-6.475-0.469-9.877c0.397-0.994,0.302-2.182,0.458-3.278c0.336-2.324,0.414-4.731,1.099-6.947
	c0.942-3.046,1.145-5.95,0.444-9.083c-1.321-5.907-1.991-11.827,0.549-17.69c0.663-1.532,1.081-3.458,0.802-5.06
	c-1.135-6.425-2.575-12.795-3.927-19.181c-0.292-1.391-1.265-2.02-2.499-2.77c-3.347-2.036-6.607-4.292-9.58-6.84
	c-1.386-1.187-2.021-3.249-2.994-4.915c0.312-0.226,0.625-0.451,0.938-0.677c1.613,1.832,3.23,3.664,4.843,5.496
	c0.295-0.267,0.588-0.534,0.88-0.801c-1.81-1.973-3.475-4.112-5.49-5.846c-0.958-0.823-2.349-0.201-2.092,1.378
	c0.423,2.616,0.726,5.363,1.789,7.737c2.271,5.075,4.994,9.945,7.161,14.169c-0.597,1.41-1.315,2.337-1.323,3.271
	c-0.022,2.912,1.146,5.37,3.506,7.183c1.783,1.375,2.912,3.032,2.358,5.62c-1.658-1.086-3.251-2.128-5.131-3.358
	c0.33,2.26,0.641,4.13,0.857,6.009c0.065,0.563,0.078,1.504-0.228,1.681c-2.615,1.512-1.295,3.271-0.456,5.037
	c1.006,2.109,0.976,2.208-0.849,3.709c-0.665-1.331-1.32-2.646-2.192-4.401c-1.018,1.536-1.91,2.699-2.605,3.97
	c-1.119,2.056-1.907,4.32-3.208,6.244c-1.268,1.876-1.328,3.612-0.592,5.594c0.847,2.289,1.623,4.604,2.429,6.908
	c0.126,0.289,0.255,0.576,0.383,0.864c-0.171,0.137-0.337,0.277-0.509,0.415c-0.096-0.272-0.193-0.543-0.292-0.815
	c-1.607-1.642-3.669-3.036-4.717-4.98c-1.709-3.181-4.206-3.449-7.317-3.527c-3.428-0.085-6.854-0.713-10.251-1.277
	c-1.628-0.271-2.248-1.551-2.223-3.186c0.046-3.009-0.062-6.024,0.096-9.025c0.038-0.691,0.759-1.674,1.406-1.948
	c2.313-0.974,4.717-1.744,7.111-2.511c2.942-0.941,5.316,0.81,5.616,4.398c-1.671,0-3.318,0-5.476,0
	c2.097,1.267,3.664,2.212,5.221,3.154c-1.179,2.024-2.411,2.396-4.004,1.014c-0.592-0.513-1.207-1.208-1.904-1.344
	c-1.272-0.247-3.48-0.605-3.757-0.089c-0.706,1.321-0.595,3.094-0.721,4.693c-0.011,0.115,0.675,0.432,1.018,0.408
	c4.02-0.266,8.041-0.508,12.045-0.916c1.547-0.159,2.016-1.216,1.612-2.791c-1.033-4.044-1.84-8.148-2.958-12.168
	c-1.099-3.956-3.377-5.527-7.358-5.522c-1.985,0.003-3.968,0.012-5.951-0.024c-7.622-0.138-15.154-0.69-22.028-4.532
	c-0.474-0.266-1.305-0.299-1.794-0.064c-1.89,0.907-3.704,1.967-4.944,2.641c0.867,4.965,1.682,9.597,2.485,14.176l0,0v0.001
	c0.148,0.857,0.297,1.712,0.448,2.566c0.126,0.012,0.257,0.023,0.383,0.033c1.376,4.049,4.364,11.872,8.229,16.467l0.65,0.84
	l0.489,0.601l0.584,0.69l2.631,2.862c0.741,1.613,1.663,3.171,2.207,4.848c1.603,4.968,4.664,8.576,9.309,10.842
	c7.746,3.781,12.689,9.917,15.426,17.994c2.969,8.749,5.962,17.487,9.039,26.198c0.391,1.106,1.187,2.235,2.108,2.961
	c3.352,2.653,6.895,5.067,10.246,7.721c1.207,0.957,2.041,0.987,3.306,0.171c3.275-2.108,6.645-4.066,10.24-6.246
	c-0.408,3.535-0.771,6.645-1.134,9.754c0.146,0.035,0.29,0.073,0.434,0.11c0.595-1.688,1.189-3.373,1.812-5.14
	c1.444,1.048,2.709,1.965,4.221,3.062C144.711,159.571,144.709,159.098,144.583,158.659z"/>
</svg>
