<?xml version="1.0" encoding="utf-8"?>
<!-- Generator: Adobe Illustrator 16.0.0, SVG Export Plug-In . SVG Version: 6.00 Build 0)  -->
<!DOCTYPE svg PUBLIC "-//W3C//DTD SVG 1.1//EN" "http://www.w3.org/Graphics/SVG/1.1/DTD/svg11.dtd">
<svg version="1.1" xmlns="http://www.w3.org/2000/svg" xmlns:xlink="http://www.w3.org/1999/xlink" x="0px" y="0px" width="1008px"
	 height="1008px" viewBox="0 0 1008 1008" enable-background="new 0 0 1008 1008" xml:space="preserve">
<g id="UNTV">
	<path fill-rule="evenodd" clip-rule="evenodd" fill="#020202" d="M957.951,393.823c-1.025,4.977-2.223,9.926-3.051,14.936
		c-5.732,34.71-11.412,69.429-17.061,104.153c-5.025,30.896-9.979,61.803-14.986,92.703c-1.984,12.24-4.031,24.471-6.1,36.998
		c-4.734,0-9.242,0-13.75,0c-15.174,0-30.35-0.045-45.523,0.046c-2.469,0.015-3.457-0.464-3.904-3.258
		c-5.746-35.888-11.723-71.737-17.568-107.607c-5.328-32.68-10.547-65.377-15.855-98.06c-2.176-13.406-4.463-26.793-6.68-40.193
		c-0.184-1.108-0.213-2.241-0.33-3.529c14.074,0,27.918,0,42.26,0c10.555,67.836,21.119,135.734,31.684,203.633
		c0.193-0.021,0.387-0.041,0.58-0.062c10.529-67.71,21.057-135.419,31.668-203.65c12.799,0,25.707,0,38.617,0
		C957.951,391.229,957.951,392.526,957.951,393.823z"/>
	<path fill-rule="evenodd" clip-rule="evenodd" fill="#810303" d="M562.725,642.467c-12.834,0-25.115,0-37.699,0
		c0-84.064,0-168.032,0-252.358c0.967-0.076,2.068-0.236,3.168-0.237c15.176-0.016,30.352,0.091,45.523-0.097
		c3.025-0.038,4.209,0.854,5.018,3.722c13.238,46.846,26.588,93.661,39.918,140.481c0.336,1.183,0.74,2.346,1.803,3.417
		c0-49.053,0-98.107,0-147.346c12.664,0,24.938,0,37.461,0c0,84.005,0,167.989,0,252.181c-0.656,0.12-1.387,0.368-2.119,0.37
		c-12.709,0.023-25.422-0.073-38.131,0.092c-2.658,0.034-3.15-1.274-3.73-3.304c-16.561-58.112-33.168-116.212-49.771-174.312
		c-0.307-1.071-0.664-2.128-1.439-3.131C562.725,521.986,562.725,582.026,562.725,642.467z"/>
	<path fill-rule="evenodd" clip-rule="evenodd" fill="#810303" d="M371.187,390.005c14.247,0,27.962,0,42.056,0
		c0,1.653,0,3.168,0,4.684c0,62.648-0.045,125.295,0.088,187.943c0.012,4.847,0.838,9.803,2.059,14.507
		c1.459,5.622,5.506,9.193,11.137,10.861c5.48,1.623,10.992,1.732,16.467,0.148c8.572-2.48,12.83-8.746,13.629-19.906
		c0.168-2.325,0.143-4.666,0.143-7c0.008-62.259,0.008-124.518,0.008-186.776c0-1.401,0-2.802,0-4.403c13.275,0,26.293,0,39.67,0
		c0,0.83,0,1.57,0,2.311c-0.025,65.112,0.199,130.226-0.234,195.335c-0.121,18.047-5.812,34.469-20.891,46.123
		c-9.977,7.711-21.645,10.804-33.984,11.631c-16.172,1.082-31.896-0.492-45.924-9.555c-13.238-8.552-19.976-21.375-22.564-36.509
		c-1.021-5.972-1.576-12.099-1.588-18.154c-0.111-62.777-0.068-125.555-0.069-188.333
		C371.187,392.032,371.187,391.151,371.187,390.005z"/>
	<path fill-rule="evenodd" clip-rule="evenodd" fill="#020202" d="M805.877,390.074c0,11.858,0,23.595,0,35.732
		c-14.514,0-28.953,0-43.795,0c0,72.419,0,144.438,0,216.632c-14.109,0-27.811,0-41.902,0c0-72.06,0-144.075,0-216.362
		c-14.727,0-29.068,0-43.686,0c0-12.106,0-23.947,0-36.002C719.518,390.074,762.607,390.074,805.877,390.074z"/>
</g>
<g id="ICON">
	<polygon fill-rule="evenodd" clip-rule="evenodd" fill="#FFFFFF" points="80.404,432.657 308.108,401.105 308.108,582.135 
		80.404,579.636 	"/>
	<g id="ounBVg.tif">
		<g>
			<path fill="#020202" d="M350.791,388.142c-7.998-2.898-15.896-6.072-23.858-9.068c-1.033-0.389-2.271-0.612-3.346-0.45
				c-25.966,3.926-51.921,7.923-77.881,11.887c-7.639,1.167-15.287,2.275-23.519,3.498c1.354-4.009,2.55-7.501,3.712-11.004
				c1.58-4.761,1.463-9.694-1.076-13.833c-4.792-7.807-6.484-16.364-6.745-25.164c-0.201-6.771-3.073-10.616-9.365-12.413
				c-8.529-2.436-15.219-7.477-20.436-14.602c-1.446-1.977-3.127-3.781-4.701-5.665h-5.447c-2.325,2.72-4.649,5.44-7.214,8.441
				c-1.718-0.654-4.171-1.784-6.735-2.519c-4.381-1.254-9.006-1.659-12.486,1.767c-6.405,6.303-14.291,11.043-19.368,18.782
				c-1.814,2.766-4.491,5.007-6.96,7.286c-1.089,1.004-2.564,1.877-3.996,2.176c-9.346,1.954-18.707,3.852-28.111,5.5
				c-2.97,0.521-4.336,1.641-5.09,4.71c-1.654,6.729-3.938,13.303-5.915,19.954c-0.399,1.343-1.104,2.888-0.78,4.104
				c1.945,7.322,3.944,14.645,6.355,21.822c1.198,3.564,3.313,6.82,5.082,10.351c-8.203,1.257-15.98,2.448-23.366,3.579v181.704
				c84.661,1.906,168.635,3.796,252.744,5.689c0.244,4.477,0.465,8.548,0.698,12.818c-84.996-2.707-169.434-5.395-253.98-8.088
				v23.626c94.232,3.794,188.311,7.583,282.303,11.368c0.165-0.773,0.262-1.019,0.264-1.264c0.542-83.78,1.072-167.561,1.649-251.34
				C353.235,389.852,352.788,388.865,350.791,388.142z M167.052,324.997c-4.612,1.459-8.194,2.592-12.141,3.841
				c-0.177-2.29-0.325-4.232-0.507-6.593C158.375,323.108,162.131,323.926,167.052,324.997z M145.055,344.337
				c5.582-2.945,11.037-6.145,16.436-9.421c4.373-2.655,4.576-2.735,7.806,1.381c8.677,11.06,13.846,23.758,17.368,37.223
				c0.781,2.982,1.551,5.966,2.324,8.95c-0.348,0.357-0.695,0.714-1.043,1.072c-1.094-0.989-2.736-1.775-3.191-3.001
				c-2.596-6.981-4.898-14.07-7.321-21.116c-0.544-1.581-1.153-3.14-1.749-4.703c-1.854-4.859-4.895-7.571-10.582-6.946
				c-8.739,0.959-17.525,1.493-26.293,2.19c-1.904,0.151-3.814,0.231-5.86-0.195C136.992,347.977,141.15,346.397,145.055,344.337z
				 M157.268,356.039c2.541-0.369,5.439-1.002,7.656-0.157c2.508,0.957,5.611,3.039,6.398,5.337
				c3.074,8.97,5.373,18.209,7.848,27.379c0.291,1.076-0.111,2.339-0.193,3.516c-0.318,0.065-0.636,0.129-0.953,0.194
				c-1.227-2.651-2.502-5.281-3.652-7.964c-0.451-1.054-0.537-2.259-0.93-3.344c-4.488-12.388-5.239-12.646-17.176-12.89
				c-9.535-0.195-19.094-0.635-28.574-1.624c-4.339-0.453-8.514-2.487-13.377-3.995C129.212,360.24,143.23,358.08,157.268,356.039z
				 M106.656,369.896c0.795-0.382,2.156-0.33,2.932,0.104c11.222,6.274,23.526,7.176,35.974,7.402
				c3.241,0.059,6.483,0.044,9.724,0.04c6.506-0.008,10.223,2.558,12.02,9.021c1.824,6.565,3.143,13.269,4.831,19.875
				c0.657,2.572-0.105,4.298-2.634,4.557c-6.541,0.667-13.109,1.063-19.672,1.498c-0.564,0.038-1.683-0.479-1.668-0.668
				c0.212-2.612,0.025-5.507,1.182-7.665c0.45-0.841,4.057-0.258,6.135,0.146c1.139,0.221,2.146,1.357,3.111,2.195
				c2.601,2.258,4.612,1.651,6.543-1.656c-2.547-1.538-5.105-3.083-8.533-5.152h8.945c-0.49-5.859-4.364-8.721-9.174-7.182
				c-3.911,1.251-7.837,2.509-11.614,4.101c-1.058,0.446-2.233,2.051-2.294,3.181c-0.261,4.902-0.087,9.826-0.158,14.741
				c-0.039,2.67,0.97,4.762,3.629,5.204c5.551,0.922,11.146,1.947,16.746,2.087c5.08,0.127,9.156,0.564,11.952,5.76
				c1.707,3.174,5.078,5.453,7.702,8.134c0.228-0.252,0.455-0.504,0.682-0.757c-1.318-3.763-2.586-7.544-3.969-11.282
				c-1.199-3.238-1.104-6.074,0.969-9.139c2.125-3.142,3.412-6.838,5.24-10.197c1.133-2.078,2.591-3.978,4.253-6.486
				c1.429,2.867,2.498,5.015,3.581,7.189c2.979-2.451,3.028-2.615,1.39-6.06c-1.372-2.885-3.526-5.757,0.743-8.227
				c0.498-0.288,0.476-1.824,0.369-2.744c-0.354-3.07-0.857-6.124-1.395-9.816c3.07,2.011,5.669,3.712,8.379,5.487
				c0.903-4.227-0.939-6.937-3.857-9.18c-3.85-2.961-5.76-6.976-5.723-11.733c0.012-1.524,1.187-3.038,2.16-5.341
				c-3.535-6.899-7.987-14.855-11.697-23.143c-1.735-3.877-2.229-8.366-2.92-12.637c-0.418-2.579,1.854-3.596,3.415-2.252
				c3.292,2.832,6.015,6.327,8.97,9.549c-0.478,0.436-0.956,0.871-1.435,1.307c-2.639-2.992-5.277-5.983-7.916-8.975l-1.527,1.104
				c1.591,2.721,2.627,6.089,4.89,8.028c4.854,4.161,10.179,7.847,15.649,11.171c2.017,1.225,3.601,2.252,4.081,4.523
				c2.204,10.43,4.559,20.834,6.408,31.328c0.46,2.616-0.224,5.763-1.308,8.265c-4.149,9.576-3.049,19.247-0.896,28.893
				c1.143,5.119,0.816,9.862-0.725,14.837c-1.12,3.621-1.247,7.551-1.793,11.348c-0.258,1.789-0.1,3.73-0.75,5.354
				c-2.224,5.559-0.82,10.685,0.764,16.132c8.691,29.873,17.099,59.828,25.586,89.76c0.204,0.718,0.209,1.493,0.378,2.789
				c-2.473-1.794-4.539-3.292-6.895-5.001c-1.017,2.884-1.987,5.64-2.959,8.396c-0.234-0.062-0.469-0.123-0.705-0.184
				c0.591-5.077,1.18-10.154,1.852-15.933c-5.876,3.562-11.381,6.76-16.727,10.205c-2.065,1.332-3.431,1.283-5.404-0.279
				c-5.474-4.335-11.255-8.279-16.733-12.609c-1.502-1.187-2.804-3.03-3.443-4.84c-5.027-14.225-9.917-28.499-14.76-42.788
				c-4.471-13.193-12.547-23.216-25.199-29.392c-7.584-3.702-12.588-9.595-15.205-17.708c-0.93-2.884-2.562-5.554-3.795-8.337
				c-9.896-9.205-16.104-22.12-20.771-34.59c-0.01-0.028-0.013-0.054-0.021-0.082c-0.064-0.006-0.13-0.011-0.195-0.017
				c-1.553-8.861-3.105-17.723-4.791-27.348C100.604,373.108,103.57,371.378,106.656,369.896z M308.108,582.135
				c-75.574-0.83-151.487-1.663-227.704-2.499V432.657c6.082-0.847,12.312-1.715,19.06-2.654
				c1.767,12.871,9.128,23.233,14.623,34.39c4.897,9.942,11.491,18.213,23.817,19.051c4.199,0.286,6.16,2.489,7.787,6.457
				c8.734,21.294,15.994,43.042,21.379,65.416c0.367,1.525,0.354,3.142,0.565,5.179c-7.832-3.333-14.976-6.375-22.115-9.415
				c0.132,0.702,0.144,1.476,0.485,2.054c4.646,7.904,9.285,15.812,14.104,23.61c0.649,1.051,2.28,2.139,3.45,2.132
				c46.789-0.301,93.579-0.726,140.368-1.142c0.238-0.002,0.475-0.111,1.087-0.265v-50.256c-4.629,4.691-9.802,9.935-15.064,15.269
				c2.951,1.638,6.713,3.725,10.964,6.081c-5.107,2.796-9.922,5.434-14.971,8.197c3.893,3.874,7.624,7.586,11.355,11.3
				c0.228,0.201,0.455,0.403,0.682,0.605c-0.385,0.01-0.771,0.021-1.156,0.03c-7.226-3.67-14.45-7.341-21.793-11.071
				c-1.129,2.113-2.137,3.996-3.385,6.331c-4.703-7.089-9.185-13.846-13.75-20.728c-1.33,1.996-2.602,3.901-4.066,6.099
				c-3.326-10.804-6.385-21.325-9.806-31.728c-6.37-19.371-13.021-38.648-19.39-58.019c-1.553-4.722-2.544-9.637-3.609-14.503
				c-0.216-0.984,0.1-2.343,0.667-3.202c5.567-8.43,6.54-17.513,4.14-27.138c-0.148-0.599-0.172-1.229-0.301-2.201
				c27.423-3.796,54.668-7.568,82.576-11.432V582.135z"/>
			<path fill-rule="evenodd" clip-rule="evenodd" fill="#020202" d="M232.606,685.673c-1.422-0.263-2.842-0.737-4.269-0.759
				c-37.58-0.563-75.161-1.08-112.996-1.607c0-3.526,0-6.939,0-10.641c29.387-2.154,58.787-4.308,88.606-6.494
				c-0.778-6.42-1.534-12.645-2.363-19.483c18.021,0.553,35.943,1.103,54.178,1.662c0,6.938,0,13.746,0,21.002
				c8.689,0.854,17.117,1.683,25.875,2.543c0,4.582,0,9.179,0,13.777C265.294,685.673,248.95,685.673,232.606,685.673z"/>
			<path fill-rule="evenodd" clip-rule="evenodd" fill="#020202" d="M52.049,410.945c4.667-6.89,9.334-13.779,14.371-21.216
				c2.038,7.847,3.943,15.184,5.951,22.91c-6.963-0.314-13.642-0.615-20.322-0.916C52.049,411.464,52.049,411.205,52.049,410.945z"
				/>
			<path fill-rule="evenodd" clip-rule="evenodd" fill="#020202" d="M256.325,378.666c-6.344-4.439-12.688-8.878-19.287-13.496
				c3.534-6.408,6.99-12.673,10.926-19.809c3.099,11.578,5.948,22.224,8.798,32.87C256.606,378.367,256.461,378.512,256.325,378.666
				z"/>
			<path fill-rule="evenodd" clip-rule="evenodd" fill="#020202" d="M256.762,378.232c0.167,0.139,0.335,0.278,0.502,0.417
				c-0.312,0.005-0.624,0.01-0.938,0.016C256.461,378.512,256.606,378.367,256.762,378.232z"/>
			<path fill-rule="evenodd" clip-rule="evenodd" fill="#FFFFFF" d="M114.314,362.491c14.897-2.251,28.916-4.411,42.953-6.452
				c2.541-0.369,5.439-1.002,7.656-0.157c2.508,0.957,5.611,3.039,6.398,5.337c3.074,8.97,5.373,18.209,7.848,27.379
				c0.291,1.076-0.111,2.339-0.193,3.516c-0.318,0.065-0.636,0.129-0.953,0.194c-1.227-2.651-2.502-5.281-3.652-7.964
				c-0.451-1.054-0.537-2.259-0.93-3.344c-4.488-12.388-5.239-12.646-17.176-12.89c-9.535-0.195-19.094-0.635-28.574-1.624
				C123.353,366.033,119.178,363.998,114.314,362.491z"/>
			<path fill-rule="evenodd" clip-rule="evenodd" fill="#FFFFFF" d="M187.945,383.542c-1.094-0.989-2.736-1.775-3.191-3.001
				c-2.596-6.981-4.898-14.07-7.321-21.116c-0.544-1.581-1.153-3.14-1.749-4.703c-1.854-4.859-4.895-7.571-10.582-6.946
				c-8.739,0.959-17.525,1.493-26.293,2.19c-1.904,0.151-3.814,0.231-5.86-0.195c4.044-1.794,8.202-3.373,12.106-5.434
				c5.582-2.945,11.037-6.145,16.436-9.421c4.373-2.655,4.576-2.735,7.806,1.381c8.677,11.06,13.846,23.758,17.368,37.223
				c0.781,2.982,1.551,5.966,2.324,8.95C188.641,382.827,188.293,383.185,187.945,383.542z"/>
			<path fill-rule="evenodd" clip-rule="evenodd" fill="#FFFFFF" d="M167.052,324.997c-4.612,1.459-8.194,2.592-12.141,3.841
				c-0.177-2.29-0.325-4.232-0.507-6.593C158.375,323.108,162.131,323.926,167.052,324.997z"/>
			<path fill-rule="evenodd" clip-rule="evenodd" fill="#FFFFFF" d="M297.3,568.061c0.228,0.201,0.455,0.403,0.682,0.605
				c-0.385,0.01-0.771,0.021-1.156,0.03C296.983,568.484,297.142,568.272,297.3,568.061z"/>
			<path fill-rule="evenodd" clip-rule="evenodd" fill="#020202" d="M233.319,422.556c9.029-7.289,19.158-11.421,30.882-12.463
				c13.122-1.167,26.152-3.386,39.495-5.184c1.601,18.668,2.533,37.147-5.691,54.624c-3.022-5.885-6.267-12.201-10.027-19.523
				c0,4.191,0,7.298,0,10.406c-0.27,0.039-0.541,0.077-0.812,0.116c-0.931-4.028-1.86-8.056-2.929-12.685
				c-9.41,9.141-18.551,18.02-27.692,26.898c-0.239-0.084-0.478-0.167-0.718-0.251c1.387-6.362,2.773-12.723,4.394-20.156
				c-7.06,4.124-13.22,7.722-20.293,11.854c5.733-11.79,11.044-22.711,16.214-33.342c-7.633,0-15.068,0-22.503,0
				C233.53,422.754,233.425,422.656,233.319,422.556z"/>
			<path fill-rule="evenodd" clip-rule="evenodd" fill="#020202" d="M90.779,493.121c2.107,11.016,4.094,21.389,6.079,31.763
				c-0.285,0.055-0.57,0.109-0.855,0.164c-2.696-6.217-5.136-12.562-8.156-18.616c-3.44-6.894-4.725-14.006-4.604-21.68
				c0.263-16.844,0.081-33.696,0.081-50.988c4.066-0.453,8.468-0.942,13.339-1.484c-1.412,4.579-2.547,8.661-3.942,12.65
				c-0.919,2.625-0.614,4.78,0.808,7.217c5.208,8.92,10.179,17.979,14.893,27.588c-3.336-1.907-6.671-3.815-10.824-6.191
				c3.148,10.445,6.078,20.17,9.256,30.712C101.188,500.331,96.241,496.905,90.779,493.121z"/>
			<path fill-rule="evenodd" clip-rule="evenodd" fill="#020202" d="M103.212,529.309c-1.174,5.893-2.122,10.653-3.112,15.624
				c3.621,1.064,7.035,2.068,10.683,3.141c-1.401,5.153-2.737,10.065-4.212,15.492c4.278-2.113,8.113-4.008,12.104-5.979
				c0.414,8.969-4.168,14.555-10.792,18.928c-0.404,0.267-0.965,0.415-1.454,0.416c-8.251,0.024-16.502,0.018-24.822,0.018
				c0-11.46-0.031-22.562,0.062-33.66c0.007-0.816,0.694-1.964,1.403-2.385C89.377,537.173,95.758,533.573,103.212,529.309z"/>
			<path fill-rule="evenodd" clip-rule="evenodd" fill="#020202" d="M297.69,505.056c-6.953,0-13.217,0-20.066,0
				c6.558-5.828,12.686-11.274,19.205-17.07c-4.563-1.16-8.649-2.199-12.734-3.237c-0.027-0.21-0.055-0.42-0.082-0.629
				c4.283-0.958,8.567-1.916,13.369-2.989c-3.262-5.454-6.389-10.684-9.697-16.217c6.094,0.421,11.736,0.811,17.229,1.19
				c0,17.698,0,35.124,0,52.6c-6.195,1.768-11.964,3.413-18.449,5.263C290.306,517.494,293.808,511.596,297.69,505.056z"/>
			<path fill-rule="evenodd" clip-rule="evenodd" fill="#020202" d="M262.265,505.063c-6.064-1.706-12.129-3.413-18.456-5.192
				c3.288-7.943,6.317-15.259,9.701-23.431c3.038,10.073,5.847,19.382,8.655,28.691L262.265,505.063z"/>
			<path fill-rule="evenodd" clip-rule="evenodd" fill="#020202" d="M135.718,524.754c-4.79,0.999-9.034,1.884-13.582,2.832
				c0.626-7.524,1.239-14.911,1.957-23.562C128.236,511.413,131.822,517.807,135.718,524.754z"/>
			<path fill-rule="evenodd" clip-rule="evenodd" fill="#020202" d="M262.165,505.132c0.16,0.093,0.322,0.185,0.482,0.276
				c-0.145,0.048-0.289,0.096-0.434,0.143c0.017-0.163,0.033-0.324,0.05-0.487C262.265,505.063,262.165,505.132,262.165,505.132z"/>
			<path fill-rule="evenodd" clip-rule="evenodd" fill="#020202" d="M233.639,422.85c-0.265,0.026-0.53,0.053-0.795,0.079
				c0.159-0.124,0.317-0.249,0.476-0.373C233.425,422.656,233.53,422.754,233.639,422.85z"/>
			<path fill-rule="evenodd" clip-rule="evenodd" fill="#020202" d="M145.496,550.938c-0.174,0.05-0.348,0.099-0.521,0.149
				c0.015-0.159,0.028-0.317,0.043-0.476c0.139,0.144,0.277,0.288,0.417,0.432L145.496,550.938z"/>
			<path fill-rule="evenodd" clip-rule="evenodd" fill="#020202" d="M183.016,434.86c0.208,0.47,0.416,0.94,0.624,1.411
				c-0.275,0.226-0.551,0.453-0.826,0.679c-0.159-0.444-0.319-0.888-0.479-1.333C182.562,435.365,182.789,435.113,183.016,434.86z"
				/>
		</g>
	</g>
	<path fill-rule="evenodd" clip-rule="evenodd" fill="#FFFFFF" d="M233.953,551.927c-8.487-29.932-16.895-59.887-25.586-89.76
		c-1.584-5.447-2.987-10.574-0.764-16.132c0.65-1.625,0.492-3.565,0.75-5.354c0.546-3.796,0.673-7.727,1.793-11.348
		c1.541-4.976,1.867-9.718,0.725-14.837c-2.153-9.646-3.254-19.317,0.896-28.893c1.084-2.502,1.768-5.649,1.308-8.265
		c-1.85-10.494-4.204-20.898-6.408-31.328c-0.48-2.271-2.064-3.298-4.081-4.523c-5.471-3.324-10.796-7.01-15.649-11.171
		c-2.263-1.939-3.299-5.308-4.89-8.028c0.509-0.368,1.019-0.736,1.527-1.104c2.639,2.991,5.277,5.983,7.916,8.975
		c0.479-0.436,0.957-0.872,1.435-1.307c-2.955-3.223-5.678-6.717-8.97-9.549c-1.562-1.343-3.833-0.326-3.415,2.252
		c0.69,4.271,1.185,8.759,2.92,12.637c3.71,8.288,8.162,16.243,11.697,23.143c-0.974,2.303-2.148,3.817-2.16,5.341
		c-0.037,4.757,1.873,8.772,5.723,11.733c2.918,2.244,4.761,4.954,3.857,9.18c-2.71-1.774-5.309-3.476-8.379-5.487
		c0.537,3.692,1.04,6.746,1.395,9.816c0.106,0.92,0.129,2.456-0.369,2.744c-4.27,2.47-2.115,5.342-0.743,8.227
		c1.639,3.445,1.589,3.609-1.39,6.06c-1.083-2.175-2.152-4.322-3.581-7.189c-1.662,2.508-3.12,4.408-4.253,6.486
		c-1.828,3.358-3.115,7.055-5.24,10.197c-2.072,3.064-2.168,5.901-0.969,9.139c1.383,3.738,2.65,7.52,3.969,11.282
		c0.208,0.47,0.416,0.94,0.624,1.411c-0.275,0.226-0.551,0.453-0.826,0.679c-0.159-0.444-0.319-0.888-0.479-1.333
		c-2.624-2.681-5.995-4.959-7.702-8.134c-2.796-5.196-6.872-5.633-11.952-5.76c-5.6-0.14-11.195-1.165-16.746-2.087
		c-2.659-0.442-3.668-2.533-3.629-5.204c0.071-4.915-0.103-9.838,0.158-14.741c0.061-1.13,1.236-2.735,2.294-3.181
		c3.777-1.592,7.703-2.849,11.614-4.101c4.81-1.539,8.684,1.323,9.174,7.182c-2.729,0-5.42,0-8.945,0
		c3.428,2.069,5.986,3.614,8.533,5.152c-1.931,3.307-3.942,3.914-6.543,1.656c-0.966-0.838-1.973-1.974-3.111-2.195
		c-2.078-0.404-5.685-0.987-6.135-0.146c-1.156,2.158-0.97,5.053-1.182,7.665c-0.015,0.188,1.104,0.706,1.668,0.668
		c6.562-0.435,13.131-0.831,19.672-1.498c2.528-0.259,3.291-1.985,2.634-4.557c-1.688-6.605-3.007-13.31-4.831-19.875
		c-1.797-6.462-5.514-9.029-12.02-9.021c-3.24,0.004-6.482,0.02-9.724-0.04c-12.447-0.227-24.752-1.128-35.974-7.402
		c-0.775-0.434-2.137-0.486-2.932-0.104c-3.086,1.482-6.053,3.211-8.078,4.314c1.42,8.108,2.746,15.673,4.057,23.154v0.001v0
		c0.245,1.399,0.49,2.797,0.734,4.193c0.209,0.018,0.418,0.036,0.627,0.054c2.249,6.613,7.125,19.39,13.444,26.895l1.059,1.373
		l0.797,0.983l0.956,1.126l4.299,4.676c1.206,2.633,2.718,5.18,3.602,7.919c2.617,8.113,7.621,14.006,15.205,17.708
		c12.652,6.176,20.729,16.198,25.199,29.392c4.843,14.289,9.732,28.563,14.76,42.788c0.64,1.81,1.941,3.653,3.443,4.84
		c5.479,4.33,11.26,8.274,16.733,12.609c1.974,1.562,3.339,1.611,5.404,0.279c5.346-3.445,10.851-6.644,16.727-10.205
		c-0.672,5.778-1.261,10.855-1.852,15.933c0.236,0.061,0.471,0.122,0.705,0.184c0.972-2.757,1.942-5.513,2.959-8.396
		c2.355,1.709,4.422,3.207,6.895,5.001C234.162,553.42,234.157,552.645,233.953,551.927z"/>
</g>
</svg>
