<?xml version="1.0" encoding="UTF-8" standalone="no"?>
<!-- The icon can be used freely in both personal and commercial projects with no attribution required, but always appreciated. 
You may NOT sub-license, resell, rent, redistribute or otherwise transfer the icon without express written permission from iconmonstr.com -->

<svg
   xmlns:dc="http://purl.org/dc/elements/1.1/"
   xmlns:cc="http://creativecommons.org/ns#"
   xmlns:rdf="http://www.w3.org/1999/02/22-rdf-syntax-ns#"
   xmlns:svg="http://www.w3.org/2000/svg"
   xmlns="http://www.w3.org/2000/svg"
   xmlns:sodipodi="http://sodipodi.sourceforge.net/DTD/sodipodi-0.dtd"
   xmlns:inkscape="http://www.inkscape.org/namespaces/inkscape"
   version="1.1"
   x="0px"
   y="0px"
   width="512px"
   height="512px"
   viewBox="0 0 512 512"
   enable-background="new 0 0 512 512"
   xml:space="preserve"
   id="svg2986"
   inkscape:version="0.48.4 r9939"
   sodipodi:docname="delete.svg"><metadata
     id="metadata2993"><rdf:RDF><cc:Work
         rdf:about=""><dc:format>image/svg+xml</dc:format><dc:type
           rdf:resource="http://purl.org/dc/dcmitype/StillImage" /><dc:title></dc:title></cc:Work></rdf:RDF></metadata><defs
     id="defs2991" /><sodipodi:namedview
     pagecolor="#ffffff"
     bordercolor="#666666"
     borderopacity="1"
     objecttolerance="10"
     gridtolerance="10"
     guidetolerance="10"
     inkscape:pageopacity="0"
     inkscape:pageshadow="2"
     inkscape:window-width="1213"
     inkscape:window-height="757"
     id="namedview2989"
     showgrid="false"
     inkscape:zoom="0.4609375"
     inkscape:cx="256"
     inkscape:cy="256"
     inkscape:window-x="87"
     inkscape:window-y="99"
     inkscape:window-maximized="0"
     inkscape:current-layer="svg2986" /><path
     id="error-6-icon"
     d="M324.76,90.472l97.24,97.24v137.52l-97.24,97.24H187.24L90,325.231v-137.52l97.24-97.24H324.76    M341.328,50.472H170.672L50,171.144V341.8l120.672,120.672h170.656L462,341.8V171.144L341.328,50.472L341.328,50.472z    M321.072,356.956l-64.071-64.068l-64.07,64.076l-34.415-34.434l64.058-64.067l-64.065-64.062l34.435-34.414l64.055,64.046   l64.044-64.054l34.443,34.42l-64.055,64.06l64.062,64.054L321.072,356.956z"
     style="fill:#000000" /></svg>